<?xml version="1.0" encoding="utf-8"?>
<!-- Generator: Adobe Illustrator 22.0.0, SVG Export Plug-In . SVG Version: 6.00 Build 0)  -->
<svg version="1.1" id="Layer_1" xmlns="http://www.w3.org/2000/svg" xmlns:xlink="http://www.w3.org/1999/xlink" x="0px" y="0px"
	 viewBox="0 0 405.8 294.8" style="enable-background:new 0 0 405.8 294.8;" xml:space="preserve">
<style type="text/css">
	.st0{fill:none;stroke:#000000;stroke-miterlimit:10;}
	.st1{font-family:'MyriadPro-Regular';}
	.st2{font-size:12px;}
	.st3{fill:#FFFFFF;stroke:#000000;stroke-miterlimit:10;}
	.st4{font-size:4.0072px;}
</style>
<rect x="42.6" y="27.9" class="st0" width="344.9" height="254.1"/>
<text transform="matrix(1 0 0 1 2.7145 25.5647)" class="st1 st2">0rigem</text>
<circle cx="42.6" cy="27.9" r="2.3"/>
<g>
	<line class="st3" x1="56.7" y1="18" x2="327" y2="18"/>
	<polygon points="327,13.7 331,18 327,22.3 	"/>
</g>
<text transform="matrix(1 0 0 1 172.0478 10.9998)" class="st1 st2">eixo x</text>
<g>
	<line class="st3" x1="31.9" y1="42" x2="31.9" y2="252.3"/>
	<polygon points="36.2,252.3 31.9,256.3 27.6,252.3 	"/>
</g>
<text transform="matrix(6.123234e-17 -1 1 6.123234e-17 25.3449 165.2534)" class="st1 st2">eixo y</text>
<circle cx="71.1" cy="56.4" r="2.3"/>
<text transform="matrix(1 0 0 1 74.5 54.6445)" class="st1 st4">10, 10</text>
<text transform="matrix(1 0 0 1 42.5714 22.3333)" class="st1 st4">0, 0</text>
</svg>
